<svg aria-hidden="true" style="position: absolute; width: 0; height: 0; overflow: hidden;" version="1.1" xmlns="http://www.w3.org/2000/svg" xmlns:xlink="http://www.w3.org/1999/xlink">
<defs>
<symbol id="icon-burger" viewBox="0 0 32 32">
<path stroke-linejoin="round" stroke-linecap="round" stroke-miterlimit="4" stroke-width="2" d="M28 13.333h-24M28 8h-24M28 18.667h-24M28 24h-24"></path>
</symbol>
<symbol id="icon-facebook" viewBox="0 0 32 32">
<path d="M31.294 16c0-8.447-6.847-15.294-15.294-15.294s-15.294 6.847-15.294 15.294c0 8.447 6.847 15.294 15.294 15.294v0c8.443-0.008 15.286-6.851 15.294-15.293v-0.001zM17.176 28.883v-9.353h3.529c0.65 0 1.176-0.527 1.176-1.176s-0.527-1.176-1.176-1.176v0h-3.529v-3.529c0-1.3 1.053-2.353 2.353-2.353v0h2.353c0.65 0 1.176-0.527 1.176-1.176s-0.527-1.176-1.176-1.176v0h-2.353c-2.596 0.009-4.697 2.11-4.706 4.705v3.53h-3.529c-0.65 0-1.176 0.527-1.176 1.176s0.527 1.176 1.176 1.176v0h3.529v9.353c-6.623-0.623-11.765-6.155-11.765-12.888 0-7.147 5.794-12.941 12.941-12.941s12.941 5.794 12.941 12.941c0 6.733-5.142 12.265-11.713 12.884l-0.052 0.004z"></path>
</symbol>
<symbol id="icon-inst" viewBox="0 0 32 32">
<path d="M16 10c-3.314 0-6 2.686-6 6s2.686 6 6 6v0c3.314 0 6-2.686 6-6s-2.686-6-6-6v0zM16 20c-2.209 0-4-1.791-4-4s1.791-4 4-4c2.209 0 4 1.791 4 4v0c-0.007 2.206-1.794 3.993-3.999 4h-0.001zM21.5 3.5h-11c-3.866 0-7 3.134-7 7v0 11c0 3.866 3.134 7 7 7v0h11c3.866 0 7-3.134 7-7v0-11c0-3.866-3.134-7-7-7v0zM26.5 21.5c0 2.761-2.239 5-5 5v0h-11c-2.761 0-5-2.239-5-5v0-11c0-2.761 2.239-5 5-5v0h11c2.761 0 5 2.239 5 5v0 11zM24 9.5c0 0.828-0.672 1.5-1.5 1.5s-1.5-0.672-1.5-1.5v0c0-0.828 0.672-1.5 1.5-1.5s1.5 0.672 1.5 1.5v0z"></path>
</symbol>
<symbol id="icon-minlogo" viewBox="0 0 241 32">
<path d="M0 31.964v-31.964h5.992l14.795 10.372h0.226l14.795-10.372h5.992v31.964h-7.153v-23.023l-10.148 6.795v16.228h-7.153v-16.228l-10.193-6.795v23.023h-7.153zM48.514 31.964v-31.964h7.153v31.964h-7.153zM62.364 31.964v-31.964h7.243l22.62 22.978v-22.978h7.153v31.964h-7.24l-22.626-23.023v23.023h-7.153zM106.076 31.964v-31.964h7.153v31.964h-7.153zM119.927 31.964v-31.964h5.992l14.797 10.372h0.224l14.797-10.372h5.992v31.964h-7.153v-23.023l-10.15 6.795v16.228h-7.153v-16.228l-10.193-6.795v23.023h-7.153zM165.76 31.964l14.394-31.964h11.042l14.396 31.964h-7.78l-3.040-6.75h-18.195l-3.040 6.75h-7.778zM179.172 19.401h13.009l-6.214-13.811h-0.584l-6.212 13.813zM209.623 31.964v-31.964h7.153v26.153h23.381v5.811h-30.534z"></path>
</symbol>
<symbol id="icon-x" viewBox="0 0 32 32">
<path stroke-linejoin="round" stroke-linecap="round" stroke-miterlimit="4" stroke-width="2" d="M24 8l-16 16M8 8l16 16"></path>
</symbol>
<symbol id="icon-youtube" viewBox="0 0 41 32">
<path d="M27.072 14.803l-8.571-5.714c-0.225-0.145-0.5-0.231-0.795-0.231-0.245 0-0.475 0.059-0.679 0.164l0.008-0.004c-0.45 0.246-0.75 0.717-0.75 1.257 0 0.004 0 0.007 0 0.011v-0.001 11.429c-0 0.003-0 0.008-0 0.012 0 0.54 0.3 1.011 0.742 1.253l0.007 0.004c0.211 0.105 0.443 0.16 0.679 0.16 0.279-0.003 0.551-0.083 0.786-0.232l8.571-5.714c0.393-0.259 0.648-0.698 0.648-1.197s-0.256-0.938-0.643-1.193l-0.005-0.003zM19.143 19.054v-6.107l4.571 3.054-4.571 3.054zM39.554 5.607c-0.344-1.348-1.307-2.417-2.561-2.901l-0.029-0.010c-6.107-2.357-15.857-2.338-16.393-2.338s-10.286-0.018-16.393 2.338c-1.282 0.494-2.245 1.563-2.582 2.882l-0.006 0.029c-0.465 1.768-1.018 5.017-1.018 10.393 0 5.375 0.553 8.625 1.017 10.393 0.344 1.348 1.307 2.417 2.561 2.901l0.029 0.010c5.857 2.267 15.035 2.339 16.269 2.339h0.249c1.232 0 10.411-0.072 16.269-2.339 1.282-0.494 2.245-1.563 2.582-2.882l0.006-0.029c0.465-1.768 1.018-5.017 1.018-10.393 0-5.375-0.553-8.625-1.017-10.393zM36.785 25.68c-0.111 0.443-0.423 0.795-0.831 0.96l-0.009 0.003c-5.659 2.179-15.267 2.143-15.374 2.143h-0.018c-0.089 0-9.696 0.037-15.357-2.143-0.416-0.169-0.728-0.521-0.837-0.954l-0.002-0.010c-0.43-1.626-0.929-4.609-0.929-9.68 0-5.072 0.501-8.054 0.929-9.679 0.111-0.442 0.422-0.795 0.83-0.96l0.009-0.003c5.447-2.090 14.589-2.143 15.339-2.143h0.035c0.107 0 9.714-0.037 15.375 2.142 0.417 0.168 0.729 0.521 0.838 0.955l0.002 0.010c0.427 1.625 0.928 4.608 0.928 9.679 0 5.072-0.501 8.054-0.929 9.679z"></path>
</symbol>
<symbol id="icon-check" viewBox="0 0 32 32">
<path d="M27 4l-15 15-7-7-5 5 12 12 20-20z"></path>
</symbol>
</defs>
</svg>
